<svg preserveAspectRatio="none" width="100%" height="100%" overflow="visible" style="display: block;" viewBox="0 0 101.595 42" fill="none" xmlns="http://www.w3.org/2000/svg">
<g id="Group 8">
<path id="Vector" d="M1.8621 8.00996C2.97404 7.95586 4.24075 7.98202 5.3592 7.99667C8.33641 8.03572 12.0232 7.62225 14.0406 10.3183C14.9868 11.5828 14.9838 13.7075 14.1509 15.0334C13.8678 15.4856 13.5043 15.739 13.0865 16.0473C13.8746 16.4282 14.6219 16.788 15.1241 17.527C16.4416 19.466 16.2129 22.8131 14.2137 24.2122C13.3421 24.9695 11.2484 25.486 10.1043 25.5849C8.01701 25.7616 5.95233 25.7154 3.85402 25.7202C2.94832 25.6949 1.37636 25.8334 0.627233 25.2717C-0.19348 24.6564 0.026993 22.3688 0.0267657 21.4276L0.0286344 17.0423L0.0277253 12.4771C0.0279223 11.5622 0.00677047 10.6647 0.071135 9.75102C0.163722 8.43661 0.580172 8.1136 1.8621 8.00996ZM3.2986 23.0098C4.55923 22.9875 5.82006 22.9827 7.08083 22.9953C8.61085 22.9971 10.576 23.1031 11.8614 22.1741C12.3583 21.7106 12.6511 21.0689 12.6753 20.3897C12.6974 19.7922 12.4804 19.2105 12.0722 18.7736C10.6211 17.2496 7.22508 17.9127 5.30187 17.7644C4.66868 17.7155 3.96112 17.8348 3.32002 17.6908C3.28774 19.4561 3.34466 21.2636 3.2986 23.0098ZM3.29864 15.0675C4.42802 15.0574 5.55743 15.0557 6.68684 15.0624C7.80003 15.063 9.87436 15.135 10.7513 14.4041C11.2277 13.9755 11.4631 13.748 11.5141 13.0582C11.6701 10.9467 9.41203 10.821 7.86903 10.7477C6.80073 10.697 5.66157 10.7561 4.58696 10.735C4.23856 10.7271 3.6505 10.7643 3.33021 10.6692C3.26899 12.103 3.31749 13.6247 3.29864 15.0675Z" fill="var(--fill-0, white)"/>
<path id="Vector_2" d="M24.0732 11.1871C28.185 11.0011 31.665 14.1925 31.8351 18.3053C32.0051 22.4182 28.8005 25.886 24.6874 26.0402C20.5966 26.1935 17.1521 23.01 16.9829 18.9196C16.8138 14.8292 19.9838 11.372 24.0732 11.1871ZM25.0477 23.1518C25.9725 23.077 26.83 22.6386 27.4321 21.9326C28.9803 20.0838 28.9179 16.5277 26.9908 14.9603C26.1303 14.2604 24.9322 14.0047 23.8485 14.1195L23.821 14.1226C21.0538 14.4615 19.9393 17.1405 20.3366 19.6386C20.7287 22.1035 22.589 23.4635 25.0477 23.1518Z" fill="var(--fill-0, white)"/>
<path id="Vector_3" d="M62.9919 11.1984C67.0874 10.9914 70.5743 14.1452 70.7789 18.241C70.9829 22.3368 67.8268 25.8219 63.7313 26.0234C59.6399 26.2248 56.1585 23.0722 55.9545 18.9803C55.7504 14.8884 58.9004 11.4051 62.9919 11.1984ZM63.9268 23.1629C68.9455 22.7245 68.7213 13.4681 62.8106 14.1185C57.7984 14.6185 57.9722 23.8626 63.9268 23.1629Z" fill="var(--fill-0, white)"/>
<path id="Vector_4" d="M38.3947 11.2944C39.5773 11.2385 40.908 11.4291 42.0398 11.7729C43.6238 12.254 45.3378 13.6453 44.7231 15.4923C43.9457 16.1404 43.441 16.3023 42.4667 15.9797C41.8074 15.2978 41.8071 14.7923 40.8677 14.3932C39.3857 13.7635 34.5238 13.7985 35.8333 16.5668C36.6936 16.9489 37.3185 16.918 38.2416 17.0191C40.2124 17.2348 42.945 17.3108 44.4447 18.7762C45.1143 19.4304 45.3533 20.399 45.3281 21.2987C45.2949 22.4889 45.0079 23.3614 44.1457 24.1894C42.6499 25.6256 40.327 25.9556 38.3361 25.9286C37.8372 25.9066 37.34 25.8553 36.8471 25.7752C34.9162 25.454 32.2126 24.3644 32.2932 21.7331C32.3146 21.0332 33.5823 20.5346 34.231 20.704C35.1336 20.8512 35.1793 21.6695 35.5662 22.166C36.6389 23.5423 39.9375 23.5461 41.3305 22.7028C41.922 22.3447 42.083 21.8373 42.2031 21.2644C41.8095 19.997 40.3299 20.069 39.2358 19.9559C37.6084 19.7877 36.1009 19.7084 34.5562 19.1359C32.0819 18.2188 31.8184 14.8741 33.4372 13.062C34.5888 11.8031 36.7203 11.3719 38.3947 11.2944Z" fill="var(--fill-0, white)"/>
<path id="Vector_5" d="M80.012 11.2949C81.6534 11.3276 83.2525 11.686 84.4777 12.844C85.6656 14.0922 86.3166 15.9489 86.2873 17.6901C86.25 19.912 86.3883 22.313 86.2353 24.535C86.2101 24.9035 85.9242 25.2093 85.6818 25.4626C84.8474 25.7538 83.4641 25.751 83.2691 24.7733C82.9449 23.1498 83.2191 20.9496 83.1378 19.288C83.0772 18.0609 83.2378 16.6889 82.6242 15.6161C81.5762 13.7835 79.4317 13.7843 77.7554 14.6991C75.6246 16.1683 75.3301 17.5631 75.3412 20.0123C75.3463 21.0927 75.5069 24.0127 75.1963 24.8902C75.117 25.1136 74.9321 25.2928 74.7746 25.4647C74.7074 25.4865 74.6402 25.5074 74.573 25.5277C73.9205 25.7234 72.4614 25.6439 72.3978 24.8788C72.076 21.0211 72.3382 17.0485 72.2705 13.1664C72.2366 11.2007 74.9801 10.8593 75.4145 13.0546C76.6579 11.8898 78.3514 11.4 80.012 11.2949Z" fill="var(--fill-0, white)"/>
<path id="Vector_6" d="M49.3083 7.74604C49.3994 7.73266 49.4914 7.72655 49.5836 7.72776C51.6264 7.7422 51.2314 10.1774 51.2107 11.5745C52.0506 11.5648 52.8395 11.5237 53.7067 11.6261C54.8865 11.7163 55.1406 13.3873 54.2613 13.9553C53.7612 14.2782 51.7845 14.268 51.2329 14.1463C51.1728 16.2819 51.2466 18.4529 51.2203 20.5915C51.2087 21.5238 51.2471 22.2678 51.7961 23.0504C52.8506 23.5647 53.4607 22.848 54.538 22.9045C55.7163 22.9663 56.1744 24.4506 55.235 25.1543C54.3668 25.7575 53.741 25.9249 52.686 25.9303C50.6294 25.9408 48.8709 25.185 48.3511 23.0323C48.0114 21.6253 48.0785 19.974 48.0748 18.5124C48.0631 17.0856 48.0699 15.6586 48.0952 14.232C47.1872 14.1805 46.7425 14.2801 45.8945 13.8948C45.6714 13.5702 45.4837 13.2508 45.4634 12.8455C45.4492 12.5654 45.5504 12.2917 45.7435 12.0883C46.2994 11.4929 47.3213 11.5634 48.0946 11.5313C48.0887 10.923 48.0857 10.3056 48.0818 9.69823C48.0754 8.70562 48.2119 7.98339 49.3083 7.74604Z" fill="var(--fill-0, white)"/>
<path id="Vector_7" d="M91.9549 0.0202464C92.8852 -0.0605736 93.8282 0.124912 94.7656 0.151076C96.3368 0.194933 97.8757 0.223148 99.4434 0.35672C100.15 0.416967 100.861 0.387652 101.579 0.492009C101.652 1.47166 101.457 3.27081 101.404 4.29325L101.208 8.3139C101.138 9.79428 101.528 10.4156 99.9368 10.9837C98.8525 11.0745 97.6873 10.8687 97.7111 9.52638C97.7363 8.07939 97.8348 6.65159 97.9575 5.20979C98.001 4.70495 98.005 4.20097 98.1575 3.71418C97.0449 3.61322 92.1135 3.6953 91.514 3.36358C91.1721 3.17422 90.918 2.88907 90.8145 2.50818C90.6923 2.05817 90.7281 1.11431 90.9726 0.710306C91.1978 0.337213 91.5438 0.12914 91.9549 0.0202464Z" fill="var(--fill-0, #18CB96)"/>
<path id="Vector_8" d="M86.2634 6.09072C86.7821 6.02414 87.82 6.06526 88.3816 6.08723C89.9882 6.15017 91.6175 6.26048 93.2241 6.35018C93.8413 6.38468 95.3827 6.39221 95.8807 6.5059C95.9635 6.67162 95.9797 7.19571 95.9686 7.38593C95.8151 10.0509 95.7474 12.7199 95.607 15.3848C95.5888 15.7294 95.5095 16.0178 95.3898 16.3388C95.0701 16.6319 94.9024 16.713 94.5211 16.9018C93.8065 17.0027 92.3069 16.8269 92.2019 16.1022C92.0625 15.141 92.2802 10.635 92.614 9.86821C91.0812 9.59147 87.1589 9.92539 86.0725 9.35019C85.7028 9.15436 85.4028 8.82822 85.2821 8.42334C85.1417 7.95446 85.2063 7.16081 85.4447 6.72931C85.6159 6.41963 85.9306 6.19022 86.2634 6.09072Z" fill="var(--fill-0, #18CB96)"/>
<path id="Vector_9" d="M53.8257 34.6402C53.8939 34.6713 53.9717 34.7294 54.0348 34.7729C54.2252 35.1436 54.0242 40.8167 54.0535 41.6957C54.0565 41.7823 53.9878 41.9107 53.9126 41.9692L53.856 41.9325C53.6767 41.5245 53.7383 40.9081 53.7661 40.462C52.8974 41.9892 51.1918 42.5123 49.7517 41.404C48.6459 40.3421 48.5546 38.5648 49.4771 37.3501C50.211 36.3841 52.0863 36.2869 52.9615 37.0608C53.2141 37.2841 53.4494 37.6151 53.754 37.8764C53.705 37.3199 53.6156 35.039 53.8257 34.6402ZM52.1388 41.5661C52.8403 41.2103 53.3312 40.8212 53.5848 40.0416C53.9701 38.8572 53.4232 37.4016 52.1873 36.9995C51.7701 36.8648 51.2817 36.9151 50.8484 36.9403C49.4127 37.3655 48.9693 38.8062 49.369 40.138C49.5268 40.6722 49.8918 41.1212 50.3827 41.3847C50.8928 41.6576 51.5817 41.6883 52.1388 41.5661Z" fill="var(--fill-0, white)"/>
<path id="Vector_10" d="M71.6418 36.5949C74.1717 36.3629 75.3212 37.9272 74.6485 40.4316C74.4565 41.1449 73.5469 41.7847 72.8338 41.925C71.403 42.0933 70.0757 41.5734 69.7534 40.0204C69.4408 38.5157 69.9792 36.9239 71.6418 36.5949ZM72.8747 41.5641C73.5393 41.2965 73.9762 41.0177 74.2828 40.3281C74.552 39.7231 74.5242 38.7512 74.2772 38.1435C74.0878 37.6664 73.7151 37.2851 73.2424 37.0846C72.7323 36.8702 72.1631 36.9045 71.6196 36.9439C70.156 37.4406 69.8009 38.8736 70.2221 40.2797C70.561 41.4115 71.7888 41.7421 72.8747 41.5641Z" fill="var(--fill-0, white)"/>
<path id="Vector_11" d="M39.2266 36.5937C39.8357 36.5387 40.6422 36.5582 41.1628 36.9046C43.0633 38.1693 42.6702 41.345 40.3556 41.9172C37.7125 42.2871 36.4514 40.0229 37.5356 37.6852C37.8184 37.0753 38.6001 36.7444 39.2266 36.5937ZM40.231 41.5985C40.8455 41.4138 41.3809 41.0778 41.6771 40.4984C42.2215 39.4336 42.0166 37.7379 40.8644 37.1487C40.35 36.8857 39.8157 36.8958 39.2646 36.9426C38.7064 37.1102 38.0652 37.3588 37.8335 37.929C37.0159 39.9417 37.9511 41.8559 40.231 41.5985Z" fill="var(--fill-0, white)"/>
<path id="Vector_12" d="M16.3091 36.5892L16.4515 36.5831C17.2354 36.552 18.0379 36.6014 18.639 37.1707C19.3231 37.8187 19.294 38.6113 19.3226 39.4706C18.9386 39.395 14.9973 39.2989 14.8351 39.3716C14.5881 39.6971 14.7602 40.1538 14.9334 40.4801C15.2046 40.9976 15.6734 41.3836 16.2334 41.5504C16.884 41.7428 17.4646 41.6385 18.0503 41.3189C18.7169 41.1058 18.717 40.0934 19.1836 40.2382C19.2642 40.4711 19.1482 40.7015 19.0223 40.8997C18.3163 42.0105 16.5539 42.2828 15.4741 41.5937C14.9249 41.2386 14.5407 40.6784 14.4073 40.0381C14.066 38.4723 14.6305 36.9512 16.3091 36.5892ZM14.738 39.092C15.5797 39.0298 16.6424 39.0516 17.498 39.0567C17.9429 39.0566 18.5477 39.073 18.9781 39.0437C18.7799 37.2779 18.0432 36.7966 16.3118 36.9389C15.1401 37.2732 14.7985 37.9259 14.738 39.092Z" fill="var(--fill-0, white)"/>
<path id="Vector_13" d="M24.7197 37.9634C24.8365 37.517 24.8513 37.3747 25.1944 37.0272C25.8712 36.3573 27.4597 36.3513 28.107 37.0621C28.6508 37.6018 28.6556 38.5561 28.6159 39.2854C28.5903 39.7534 28.6904 41.7321 28.4118 42C27.8687 41.6283 29.0089 37.4133 27.3739 37.0107C24.3686 36.2706 24.6641 38.944 24.6478 40.9385C24.6452 41.2626 24.7027 41.8152 24.3707 41.9682C24.3518 41.9484 24.3288 41.9242 24.3014 41.8956C24.2742 40.9404 24.3072 39.7632 24.3025 38.8302C24.2992 38.1928 24.1983 37.6627 23.7856 37.2413C23.4602 36.909 22.8818 36.8902 22.459 36.8879C21.9917 36.8854 21.6147 37.0022 21.2853 37.3432C21.0793 37.5566 20.9272 37.8161 20.8417 38.1002C20.7255 38.4739 20.5738 40.596 20.5787 41.0068C20.5694 41.2854 20.5549 41.4982 20.5942 41.7763C20.5557 41.8889 20.4905 41.9471 20.3775 41.948C20.2819 41.8414 20.2706 37.0226 20.34 36.7307C20.4428 36.6018 20.3861 36.6373 20.5577 36.6036C20.8836 36.7753 20.6623 37.3597 20.5849 37.6789C20.7975 37.4422 21.2918 36.9046 21.5654 36.7891C23.1813 36.1067 23.9873 36.7229 24.7197 37.9634Z" fill="var(--fill-0, white)"/>
<path id="Vector_14" d="M10.9283 35.0367C11.734 34.9657 12.8037 35.0718 13.2591 35.8686C13.3427 36.0148 13.4579 36.3848 13.4076 36.5521L13.3225 36.5795C13.1693 36.52 12.7829 35.932 12.5776 35.7524C11.8889 35.1502 10.6556 35.2142 10.0648 35.9054C9.83445 36.1775 9.72162 36.53 9.75112 36.8853C9.8993 38.6092 13.3546 38.0193 13.4803 39.8841C13.5678 41.1821 12.8254 41.8755 11.5891 41.959C10.6531 41.9525 9.55586 41.5662 9.31566 40.5348C9.28661 40.4102 9.31157 40.3824 9.37919 40.2923L9.50864 40.2775C9.67622 40.3459 10.0769 41.1217 10.3022 41.2841C11.0419 41.8174 12.204 41.7978 12.8056 41.0583C13.1662 40.6149 13.0974 40.1277 13.0367 39.6079C12.3788 38.7293 11.3107 38.793 10.3529 38.2607C8.60974 37.292 9.19217 35.5075 10.9283 35.0367Z" fill="var(--fill-0, white)"/>
<path id="Vector_15" d="M43.4579 36.5555L43.6517 36.5984C43.9447 36.9434 43.5985 37.4701 43.8783 37.629L43.945 37.5911C44.0448 37.2259 44.0917 37.0362 44.4603 36.8401C45.091 36.5046 45.862 36.4869 46.5437 36.6612C47.3364 36.8642 47.712 37.3944 47.7845 38.1885C47.8676 39.0995 47.8132 40.043 47.8148 40.9591C47.8151 41.1148 47.8122 41.7179 47.7788 41.833C47.6323 41.9342 47.7001 41.9098 47.5202 41.9236C47.3697 41.7461 47.4478 38.8191 47.4259 38.2872C47.2786 36.8403 45.5443 36.5245 44.4905 37.2094C43.6538 37.7533 43.7676 39.0191 43.7553 39.8646C43.7503 40.2073 43.8547 41.763 43.5989 41.9441C43.4748 41.8655 43.3812 41.562 43.3909 41.444C43.4522 40.6941 43.2487 36.9574 43.4579 36.5555Z" fill="var(--fill-0, white)"/>
<path id="Vector_16" d="M62.8116 36.593C63.9344 36.5407 65.3051 36.559 65.7379 37.9316C65.7925 38.1045 65.8809 38.3277 65.7965 38.4929C65.399 38.3961 65.1299 37.2535 64.4768 37.0557C63.6975 36.8196 62.5722 36.7693 61.9712 37.4054C60.6596 38.7948 61.1848 41.5911 63.4041 41.6272C65.1763 41.6525 65.3465 40.1505 65.7152 40.2169C65.8157 40.4164 65.695 40.7104 65.5905 40.8897C64.9016 42.0428 63.2632 42.2552 62.1434 41.6484C60.6182 40.8214 60.4954 38.1899 61.7561 37.092C62.0788 36.8107 62.3965 36.6991 62.8116 36.593Z" fill="var(--fill-0, white)"/>
<path id="Vector_17" d="M33.3188 36.5931C33.892 36.5505 34.607 36.539 35.1454 36.7625C35.632 36.9634 36.0166 37.3526 36.2118 37.8416C36.2769 38.0086 36.3413 38.2901 36.2668 38.4588C35.9908 38.3723 35.6476 37.6263 35.4021 37.3588C34.862 36.6799 32.9752 36.7781 32.4383 37.4159C31.1122 38.9914 31.7528 41.6425 34.0578 41.6265C35.7125 41.5826 35.796 40.2946 36.1838 40.1057C36.3415 40.1676 36.2971 40.1236 36.3583 40.2633C36.3503 40.4234 36.3013 40.5047 36.2285 40.6491C35.2506 42.6478 32.0075 42.353 31.518 40.1442C31.1571 38.5155 31.57 37.0287 33.3188 36.5931Z" fill="var(--fill-0, white)"/>
<path id="Vector_18" d="M67.0641 35.2249C67.1494 35.2338 67.1878 35.2541 67.2686 35.2858C67.4393 35.5551 67.3747 36.2171 67.3641 36.5595C67.7363 36.5704 68.954 36.4756 69.1101 36.8019C68.908 37.0291 67.9121 36.9085 67.4469 36.9615C67.2908 37.2633 67.3868 40.4874 67.4585 40.9961C67.7823 41.4174 67.8878 41.4486 68.3878 41.5906C68.6085 41.6109 68.9429 41.5967 69.0651 41.7937L68.9808 41.8658C68.3606 42.0129 67.8444 41.8288 67.3191 41.5197C66.8565 40.6613 67.0232 38.0394 67.0378 36.9312C66.7772 36.9379 66.4009 37.019 66.3029 36.7318C66.4631 36.5046 66.7929 36.5816 67.0444 36.598C67.0307 36.1845 67.0196 35.6257 67.0641 35.2249Z" fill="var(--fill-0, white)"/>
<path id="Vector_19" d="M77.9405 36.5405C78.1147 36.5454 78.14 36.5487 78.3031 36.6106L78.2728 36.777L78.3465 36.7179C78.1667 37.1136 77.0642 36.6764 76.4768 37.9528C76.0884 38.7983 76.4435 41.5802 76.1061 41.9469L76.0117 41.9427C75.7753 41.7154 75.845 41.5138 75.8753 41.2118C75.8854 39.7605 75.9298 38.2687 75.9202 36.8119C75.9197 36.6779 75.9703 36.6372 76.0682 36.5675C76.3894 36.7131 76.2905 37.2896 76.2622 37.5611C76.9288 36.9273 77.0081 36.6944 77.9405 36.5405Z" fill="var(--fill-0, white)"/>
<path id="Vector_20" d="M59.0952 41.2887C57.8902 42.4833 55.772 42.0807 55.4507 40.3796C55.3684 39.9452 55.2654 36.9903 55.381 36.6414C55.523 36.5638 55.4593 36.5807 55.625 36.5815C56.031 37.0138 55.2199 40.4896 56.3013 41.1932C57.1366 41.7367 57.2563 41.653 58.1397 41.6094C58.471 41.3237 58.6109 41.4028 58.9786 41.0105L59.0952 41.2887Z" fill="var(--fill-0, white)"/>
<path id="Vector_21" d="M29.9452 41.4868C29.961 40.0113 29.9364 38.5102 29.9126 37.0344C29.9108 36.9193 29.9591 36.7916 30.0151 36.6911C30.1768 36.5792 30.1077 36.6055 30.305 36.6013C30.3647 36.6327 30.4497 36.6613 30.4482 36.7321C30.4283 37.6723 30.5653 41.1084 30.4439 41.8296L30.383 41.9158L30.2453 41.9263C30.2619 41.7456 30.2724 41.5835 30.1599 41.4421L30.0542 41.4336L29.9909 41.5449L29.9452 41.4868Z" fill="var(--fill-0, white)"/>
<path id="Vector_22" d="M58.9787 41.0106C59.0479 40.7968 59.0505 40.799 59.1984 40.6341C59.7479 40.0235 59.25 37.034 59.5565 36.6137C59.6863 36.5688 59.6298 36.5673 59.7681 36.6292C60.0081 36.971 59.8187 41.0631 59.8646 41.7772C59.8712 41.876 59.6186 41.8802 59.5449 41.8844C59.3131 41.6735 59.5176 41.1648 59.3626 40.9128C59.1495 40.9434 59.1333 41.1012 59.0954 41.2888L58.9787 41.0106Z" fill="var(--fill-0, white)"/>
<path id="Vector_23" d="M29.8811 34.7146C30.1899 34.7097 30.2916 34.6757 30.5083 34.8592C30.5811 35.0288 30.532 35.2013 30.5007 35.3846C30.2058 35.3927 29.9908 35.4341 29.8206 35.176C29.8014 34.9629 29.8166 34.9211 29.8811 34.7146Z" fill="var(--fill-0, white)"/>
<path id="Vector_24" d="M20.5796 41.0069C20.6571 40.8183 20.62 40.5852 20.7051 40.4257C20.9305 40.5231 20.8892 41.6109 20.7754 41.8383L20.6761 41.8502L20.5951 41.7764C20.5558 41.4983 20.5704 41.2855 20.5796 41.0069Z" fill="var(--fill-0, white)"/>
<path id="Vector_25" d="M29.946 41.4867L29.9916 41.5447L30.0549 41.4336L30.1605 41.442C30.2729 41.5833 30.2624 41.7453 30.2459 41.9258C30.1092 41.9026 30.0774 41.894 29.947 41.8465C29.8672 41.6849 29.9008 41.7056 29.946 41.4867Z" fill="var(--fill-0, white)"/>
</g>
</svg>
